# File created by Blade
# Date/Time:  Wed Jan 21 14:28:11 2015
# Frame Rate: 120.000 fps
#------------------------------------------------------
:FULLY-SPECIFIED
:DEGREES
438
root 19.038167 35.372617 -21.626639 -172.963483 -2.033212 -178.003618
Spine -17.624607 -3.516007 2.267801
Head 9.941448 0.367939 0.538071
LeftShoulder -18.471260 -15.905361 0.043235
LeftArm -34.050892 17.851718 -83.102733
LeftForeArm 15.246480 -0.000000 -1.199897
LeftHand -4.434609 0.000000 -22.283075
LeftHandThumb1 -26.253704 0.000000 33.147579
RightShoulder -19.008242 -18.316681 10.781512
RightArm 2.051914 -25.829644 70.524350
RightForeArm -28.830660 0.000000 10.043007
RightHand 5.919555 -0.000000 22.635304
RightHandThumb1 -24.326973 -0.000000 -32.862282
LeftUpLeg 1.726505 8.956222 3.578187
LeftLeg -6.288906 -0.000000 0.000000
LeftFoot -21.168870 28.072295 -10.839068
LeftToeBase 28.129801 -0.000000 -0.000000
RightUpLeg -0.076669 -12.272600 0.673174
RightLeg -2.938989 -0.000000 0.000000
RightFoot -21.067657 -21.576695 15.421991
RightToeBase 25.779070 -0.000000 -0.000000
439
root 19.039718 35.371066 -21.620212 -173.024103 -2.060306 -177.985984
Spine -17.660982 -3.592191 2.316396
Head 10.105163 0.420071 0.530387
LeftShoulder -18.256389 -16.181888 -0.103037
LeftArm -33.467679 18.113754 -82.133323
LeftForeArm 15.853472 0.000000 -1.251628
LeftHand -4.439759 0.000000 -22.092187
LeftHandThumb1 -26.253704 0.000000 33.147579
RightShoulder -18.730961 -18.158557 10.772800
RightArm 2.604349 -24.907616 69.607886
RightForeArm -28.991737 -0.000000 10.032853
RightHand 5.709684 -0.000000 22.393361
RightHandThumb1 -24.326973 -0.000000 -32.862282
LeftUpLeg 1.792121 8.914187 3.607615
LeftLeg -6.330295 -0.000000 0.000000
LeftFoot -21.155398 28.111418 -10.788737
LeftToeBase 28.253754 -0.000000 -0.000000
RightUpLeg -0.022297 -12.272999 0.686224
RightLeg -2.939362 -0.000000 0.000000
RightFoot -21.075274 -21.604542 15.422265
RightToeBase 25.769247 -0.000000 -0.000000
440
root 19.037411 35.369821 -21.614407 -173.093987 -2.066290 -177.990753
Spine -17.674741 -3.636624 2.332311
Head 10.248185 0.467765 0.551359
LeftShoulder -18.000443 -16.489323 -0.238473
LeftArm -32.788143 18.102790 -80.971272
LeftForeArm 16.673320 -0.000000 -1.407411
LeftHand -4.453374 -0.000000 -21.745271
LeftHandThumb1 -26.253704 0.000000 33.147579
RightShoulder -18.441516 -17.913874 10.760783
RightArm 3.083659 -24.063726 68.679593
RightForeArm -29.297993 0.000000 10.056385
RightHand 5.572887 0.000000 22.251192
RightHandThumb1 -24.326973 -0.000000 -32.862282
LeftUpLeg 1.861881 8.923093 3.608450
LeftLeg -6.348853 -0.000000 0.000000
LeftFoot -21.152266 28.093554 -10.777529
LeftToeBase 28.262045 -0.000000 -0.000000
RightUpLeg 0.040461 -12.231213 0.662864
RightLeg -2.934549 -0.000000 0.000000
RightFoot -21.089293 -21.648141 15.414095
RightToeBase 25.718188 -0.000000 -0.000000
441
root 19.035118 35.369202 -21.605697 -173.154069 -2.100860 -177.997133
Spine -17.695396 -3.710014 2.363538
Head 10.393010 0.603469 0.571592
LeftShoulder -17.745268 -16.782142 -0.403374
LeftArm -32.264091 18.695905 -80.196948
LeftForeArm 16.639520 -0.000000 -1.374965
LeftHand -4.520792 0.000000 -21.244957
LeftHandThumb1 -26.253704 0.000000 33.147579
RightShoulder -18.118191 -17.658919 10.737459
RightArm 3.587890 -23.217147 67.754857
RightForeArm -29.583101 -0.000000 10.009375
RightHand 5.462393 -0.000000 22.176315
RightHandThumb1 -24.326973 -0.000000 -32.862282
LeftUpLeg 1.906542 8.867926 3.610979
LeftLeg -6.354360 -0.000000 0.000000
LeftFoot -21.116644 28.109774 -10.727444
LeftToeBase 28.234218 -0.000000 -0.000000
RightUpLeg 0.081308 -12.259034 0.646963
RightLeg -2.915345 -0.000000 0.000000
RightFoot -21.092028 -21.667579 15.371828
RightToeBase 25.709049 -0.000000 -0.000000
442
root 19.031686 35.368223 -21.590564 -173.244720 -2.106937 -177.994804
Spine -17.628592 -3.723435 2.386316
Head 10.462873 0.660273 0.590826
LeftShoulder -17.376923 -17.190712 -0.602118
LeftArm -31.745934 19.087853 -79.296296
LeftForeArm 16.805038 -0.000000 -1.427716
LeftHand -4.598303 0.000000 -20.887631
LeftHandThumb1 -26.253704 0.000000 33.147579
RightShoulder -17.788979 -17.359181 10.740523
RightArm 4.128031 -22.486157 66.786685
RightForeArm -29.847569 -0.000000 9.944967
RightHand 5.392708 -0.000000 22.122924
RightHandThumb1 -24.326973 -0.000000 -32.862282
LeftUpLeg 1.961453 8.854510 3.618472
LeftLeg -6.333166 -0.000000 0.000000
LeftFoot -21.123621 28.118215 -10.686669
LeftToeBase 28.246914 -0.000000 -0.000000
RightUpLeg 0.127014 -12.189488 0.629879
RightLeg -2.868637 -0.000000 0.000000
RightFoot -21.129537 -21.729077 15.460531
RightToeBase 25.591811 -0.000000 -0.000000
443
root 19.023681 35.368529 -21.564202 -173.342423 -2.007313 -177.969362
Spine -17.513731 -3.628843 2.450855
Head 10.518588 0.646887 0.522515
LeftShoulder -17.062865 -17.502410 -0.823409
LeftArm -30.998753 19.484123 -78.334876
LeftForeArm 16.812961 -0.000000 -1.439366
LeftHand -4.725978 0.000000 -20.364512
LeftHandThumb1 -26.253704 0.000000 33.147579
RightShoulder -17.342546 -16.897396 10.695184
RightArm 4.519543 -21.658093 65.826837
RightForeArm -30.065656 -0.000000 9.869892
RightHand 5.402679 -0.000000 22.202290
RightHandThumb1 -24.326973 -0.000000 -32.862282
LeftUpLeg 2.021421 8.927159 3.628886
LeftLeg -6.308966 -0.000000 0.000000
LeftFoot -21.144207 28.157008 -10.634566
LeftToeBase 28.288094 -0.000000 -0.000000
RightUpLeg 0.108547 -11.947934 0.616748
RightLeg -2.739391 -0.000000 0.000000
RightFoot -21.189305 -21.870546 15.395014
RightToeBase 25.762312 -0.000000 -0.000000
444
root 19.026095 35.369220 -21.554227 -173.404849 -2.169793 -177.992145
Spine -17.527286 -3.846562 2.451309
Head 10.652507 0.685308 0.594756
LeftShoulder -16.738408 -17.898754 -0.947273
LeftArm -30.450895 19.730072 -77.327302
LeftForeArm 17.363097 -0.000000 -1.426035
LeftHand -4.701145 0.000000 -19.843922
LeftHandThumb1 -26.253704 0.000000 33.147579
RightShoulder -16.939849 -16.556459 10.697697
RightArm 4.985454 -20.812592 64.876245
RightForeArm -30.708680 -0.000000 9.796841
RightHand 5.389187 -0.000000 22.331637
RightHandThumb1 -24.326973 -0.000000 -32.862282
LeftUpLeg 1.994341 8.836119 3.626345
LeftLeg -6.227285 -0.000000 0.000000
LeftFoot -21.149439 28.110956 -10.591326
LeftToeBase 28.372901 -0.000000 -0.000000
RightUpLeg 0.176932 -12.108098 0.604978
RightLeg -2.748140 -0.000000 0.000000
RightFoot -21.190662 -21.880519 15.362970
RightToeBase 25.760809 -0.000000 -0.000000
445
root 19.028195 35.369926 -21.543368 -173.468073 -2.296759 -178.024920
Spine -17.515843 -3.992842 2.409356
Head 10.743891 0.718073 0.684788
LeftShoulder -16.395186 -18.308998 -1.034003
LeftArm -29.839127 20.023246 -76.328809
LeftForeArm 17.694085 -0.000000 -1.462531
LeftHand -4.661432 0.000000 -19.444402
LeftHandThumb1 -26.253704 0.000000 33.147579
RightShoulder -16.583379 -16.177308 10.722254
RightArm 5.458176 -20.299115 63.891341
RightForeArm -30.867409 -0.000000 9.733661
RightHand 5.248932 -0.000000 22.320706
RightHandThumb1 -24.326973 -0.000000 -32.862282
LeftUpLeg 1.978838 8.695978 3.616117
LeftLeg -6.148369 -0.000000 0.000000
LeftFoot -21.154023 28.104975 -10.612999
LeftToeBase 28.306019 -0.000000 -0.000000
RightUpLeg 0.239242 -12.221217 0.576978
RightLeg -2.751822 -0.000000 0.000000
RightFoot -21.190664 -21.904427 15.323999
RightToeBase 25.950439 -0.000000 -0.000000
446
root 19.015387 35.369237 -21.523536 -173.597314 -2.153668 -178.006026
Spine -17.355332 -3.833465 2.446062
Head 10.749210 0.745187 0.684522
LeftShoulder -16.031774 -18.748136 -1.196328
LeftArm -29.111783 20.375435 -75.365100
LeftForeArm 17.826902 -0.000000 -1.579473
LeftHand -4.622182 -0.000000 -18.773150
LeftHandThumb1 -26.253704 0.000000 33.147579
RightShoulder -16.307599 -15.996671 10.723672
RightArm 6.262516 -19.929221 62.797271
RightForeArm -30.719191 -0.000000 9.721606
RightHand 4.913385 -0.000000 21.882791
RightHandThumb1 -24.326973 -0.000000 -32.862282
LeftUpLeg 2.099334 8.877690 3.614153
LeftLeg -6.144038 -0.000000 0.000000
LeftFoot -21.156158 28.075863 -10.534876
LeftToeBase 28.351004 -0.000000 -0.000000
RightUpLeg 0.264184 -11.971378 0.537570
RightLeg -2.629127 -0.000000 0.000000
RightFoot -21.238295 -21.989644 15.403572
RightToeBase 25.630627 -0.000000 -0.000000
447
root 19.010847 35.369878 -21.505893 -173.728920 -2.153623 -178.007039
Spine -17.235153 -3.826306 2.462921
Head 10.868508 0.793646 0.663097
LeftShoulder -15.671756 -19.024010 -1.359759
LeftArm -28.181342 20.540896 -74.228194
LeftForeArm 18.074202 -0.000000 -1.646277
LeftHand -4.617211 -0.000000 -18.385805
LeftHandThumb1 -26.253704 0.000000 33.147579
RightShoulder -15.968843 -15.741430 10.680902
RightArm 6.975438 -19.179981 61.845151
RightForeArm -31.114454 -0.000000 9.566453
RightHand 4.737773 0.000000 21.649852
RightHandThumb1 -24.326973 -0.000000 -32.862282
LeftUpLeg 2.196729 8.869950 3.621658
LeftLeg -6.131822 -0.000000 0.000000
LeftFoot -21.145236 28.079849 -10.507654
LeftToeBase 28.342435 -0.000000 -0.000000
RightUpLeg 0.343215 -11.913885 0.504493
RightLeg -2.581928 -0.000000 0.000000
RightFoot -21.235811 -22.021735 15.393028
RightToeBase 25.609809 -0.000000 -0.000000
448
root 19.007765 35.369996 -21.489191 -173.854160 -2.219300 -178.012035
Spine -17.110130 -3.887831 2.472702
Head 10.915612 0.809986 0.680303
LeftShoulder -15.433545 -19.241912 -1.413300
LeftArm -27.062143 20.669540 -73.067015
LeftForeArm 18.195008 -0.000000 -1.749266
LeftHand -4.608145 -0.000000 -17.972756
LeftHandThumb1 -26.253704 0.000000 33.147579
RightShoulder -15.635285 -15.393025 10.576767
RightArm 7.629090 -18.387688 60.978598
RightForeArm -31.355491 -0.000000 9.358325
RightHand 4.634695 -0.000000 21.378427
RightHandThumb1 -24.326973 -0.000000 -32.862282
LeftUpLeg 2.266934 8.816432 3.632056
LeftLeg -6.097959 -0.000000 0.000000
LeftFoot -21.136640 28.064053 -10.456910
LeftToeBase 28.378465 -0.000000 -0.000000
RightUpLeg 0.438957 -11.955122 0.477257
RightLeg -2.559202 -0.000000 0.000000
RightFoot -21.232336 -22.034665 15.381959
RightToeBase 25.596798 -0.000000 -0.000000
449
root 19.005713 35.370813 -21.467926 -173.984360 -2.318453 -178.024720
Spine -16.954654 -3.968045 2.466122
Head 10.960164 0.830725 0.720043
LeftShoulder -15.190333 -19.567892 -1.416834
LeftArm -25.997765 20.615909 -71.841477
LeftForeArm 18.446607 -0.000000 -1.798259
LeftHand -4.689343 -0.000000 -17.684556
LeftHandThumb1 -26.253704 0.000000 33.147579
RightShoulder -15.370286 -15.013774 10.470596
RightArm 8.341092 -17.637164 60.121863
RightForeArm -31.792404 -0.000000 9.171932
RightHand 4.341671 -0.000000 21.215459
RightHandThumb1 -24.326973 -0.000000 -32.862282
LeftUpLeg 2.310577 8.691505 3.638636
LeftLeg -6.029335 -0.000000 0.000000
LeftFoot -21.148775 28.091566 -10.429899
LeftToeBase 28.399041 -0.000000 -0.000000
RightUpLeg 0.538184 -12.014907 0.449494
RightLeg -2.535240 -0.000000 0.000000
RightFoot -21.245107 -22.108649 15.361729
RightToeBase 25.575168 -0.000000 -0.000000
